<?xml version="1.0" encoding="UTF-8" standalone="no" ?>
<!DOCTYPE svg PUBLIC "-//W3C//DTD SVG 1.1//EN" "http://www.w3.org/Graphics/SVG/1.1/DTD/svg11.dtd">
<svg xmlns="http://www.w3.org/2000/svg" xmlns:xlink="http://www.w3.org/1999/xlink" version="1.1" width="1080" height="1080" viewBox="0 0 1080 1080" xml:space="preserve">
<desc>Created with Fabric.js 5.2.4</desc>
<defs>
</defs>
<rect x="0" y="0" width="100%" height="100%" fill="transparent"></rect>
<g transform="matrix(1 0 0 1 540 540)" id="cc59de33-614b-45e8-8001-4571117d6f2c"  >
<rect style="stroke: none; stroke-width: 1; stroke-dasharray: none; stroke-linecap: butt; stroke-dashoffset: 0; stroke-linejoin: miter; stroke-miterlimit: 4; fill: rgb(255,255,255); fill-rule: nonzero; opacity: 1; visibility: hidden;" vector-effect="non-scaling-stroke"  x="-540" y="-540" rx="0" ry="0" width="1080" height="1080" />
</g>
<g transform="matrix(1 0 0 1 540 540)" id="167138f6-83f2-4be3-a726-53e15aa574f4"  >
</g>
<g transform="matrix(26.35 0 0 26.35 540 803.52)"  >
<path style="stroke: none; stroke-width: 1; stroke-dasharray: none; stroke-linecap: butt; stroke-dashoffset: 0; stroke-linejoin: miter; stroke-miterlimit: 4; fill: rgb(105,39,41); fill-rule: nonzero; opacity: 1;" vector-effect="non-scaling-stroke"  transform=" translate(-24, -37)" d="M 40 43 L 8 43 C 7.4 43 7 42.6 7 42 L 7 32 C 7 31.4 7.4 31 8 31 L 40 31 C 40.6 31 41 31.4 41 32 L 41 42 C 41 42.6 40.6 43 40 43 M 9 41 L 39 41 L 39 33 L 9 33 z" stroke-linecap="round" />
</g>
<g transform="matrix(26.35 0 0 26.35 540 935.37)"  >
<path style="stroke: none; stroke-width: 1; stroke-dasharray: none; stroke-linecap: butt; stroke-dashoffset: 0; stroke-linejoin: miter; stroke-miterlimit: 4; fill: rgb(105,39,41); fill-rule: nonzero; opacity: 1;" vector-effect="non-scaling-stroke"  transform=" translate(-24, -42)" d="M 42 43 L 6 43 C 5.4 43 5 42.6 5 42 C 5 41.4 5.4 41 6 41 L 42 41 C 42.6 41 43 41.4 43 42 C 43 42.6 42.6 43 42 43" stroke-linecap="round" />
</g>
<g transform="matrix(26.35 0 0 26.35 540 671.76)"  >
<path style="stroke: none; stroke-width: 1; stroke-dasharray: none; stroke-linecap: butt; stroke-dashoffset: 0; stroke-linejoin: miter; stroke-miterlimit: 4; fill: rgb(234,228,214); fill-rule: nonzero; opacity: 1;" vector-effect="non-scaling-stroke"  transform=" translate(-24, -32)" d="M 42 33 L 6 33 C 5.4 33 5 32.6 5 32 C 5 31.4 5.4 31 6 31 L 42 31 C 42.6 31 43 31.4 43 32 C 43 32.6 42.6 33 42 33" stroke-linecap="round" />
</g>
<g transform="matrix(26.35 0 0 26.35 276.48 803.52)"  >
<path style="stroke: none; stroke-width: 1; stroke-dasharray: none; stroke-linecap: butt; stroke-dashoffset: 0; stroke-linejoin: miter; stroke-miterlimit: 4; fill: rgb(105,39,41); fill-rule: nonzero; opacity: 1;" vector-effect="non-scaling-stroke"  transform=" translate(-14, -37)" d="M 16 40 L 12 40 C 11.4 40 11 39.6 11 39 L 11 37 C 11 35.3 12.3 34 14 34 C 15.7 34 17 35.3 17 37 L 17 39 C 17 39.6 16.6 40 16 40 M 13 38 L 15 38 L 15 37 C 15 36.4 14.6 36 14 36 C 13.4 36 13 36.4 13 37 z" stroke-linecap="round" />
</g>
<g transform="matrix(26.35 0 0 26.35 487.38 803.52)"  >
<path style="stroke: none; stroke-width: 1; stroke-dasharray: none; stroke-linecap: butt; stroke-dashoffset: 0; stroke-linejoin: miter; stroke-miterlimit: 4; fill: rgb(105,39,41); fill-rule: nonzero; opacity: 1;" vector-effect="non-scaling-stroke"  transform=" translate(-22, -37)" d="M 24 40 L 20 40 C 19.4 40 19 39.6 19 39 L 19 37 C 19 35.3 20.3 34 22 34 C 23.7 34 25 35.3 25 37 L 25 39 C 25 39.6 24.6 40 24 40 M 21 38 L 23 38 L 23 37 C 23 36.4 22.6 36 22 36 C 21.4 36 21 36.4 21 37 z" stroke-linecap="round" />
</g>
<g transform="matrix(26.35 0 0 26.35 803.6 803.52)"  >
<path style="stroke: none; stroke-width: 1; stroke-dasharray: none; stroke-linecap: butt; stroke-dashoffset: 0; stroke-linejoin: miter; stroke-miterlimit: 4; fill: rgb(105,39,41); fill-rule: nonzero; opacity: 1;" vector-effect="non-scaling-stroke"  transform=" translate(-34, -37)" d="M 36 40 L 32 40 C 31.4 40 31 39.6 31 39 L 31 37 C 31 35.3 32.3 34 34 34 C 35.7 34 37 35.3 37 37 L 37 39 C 37 39.6 36.6 40 36 40 M 33 38 L 35 38 L 35 37 C 35 36.4 34.6 36 34 36 C 33.4 36 33 36.4 33 37 z" stroke-linecap="round" />
</g>
<g transform="matrix(26.35 0 0 26.35 540 540)"  >
<path style="stroke: none; stroke-width: 1; stroke-dasharray: none; stroke-linecap: butt; stroke-dashoffset: 0; stroke-linejoin: miter; stroke-miterlimit: 4; fill: rgb(105,39,41); fill-rule: nonzero; opacity: 1;" vector-effect="non-scaling-stroke"  transform=" translate(-24, -27)" d="M 40 33 L 8 33 C 7.4 33 7 32.6 7 32 L 7 22 C 7 21.4 7.4 21 8 21 L 40 21 C 40.6 21 41 21.4 41 22 L 41 32 C 41 32.6 40.6 33 40 33 M 9 31 L 39 31 L 39 23 L 9 23 z" stroke-linecap="round" />
</g>
<g transform="matrix(26.35 0 0 26.35 540 671.76)"  >
<path style="stroke: none; stroke-width: 1; stroke-dasharray: none; stroke-linecap: butt; stroke-dashoffset: 0; stroke-linejoin: miter; stroke-miterlimit: 4; fill: rgb(105,39,41); fill-rule: nonzero; opacity: 1;" vector-effect="non-scaling-stroke"  transform=" translate(-24, -32)" d="M 42 33 L 6 33 C 5.4 33 5 32.6 5 32 C 5 31.4 5.4 31 6 31 L 42 31 C 42.6 31 43 31.4 43 32 C 43 32.6 42.6 33 42 33" stroke-linecap="round" />
</g>
<g transform="matrix(26.35 0 0 26.35 540 408.24)"  >
<path style="stroke: none; stroke-width: 1; stroke-dasharray: none; stroke-linecap: butt; stroke-dashoffset: 0; stroke-linejoin: miter; stroke-miterlimit: 4; fill: rgb(234,228,214); fill-rule: nonzero; opacity: 1;" vector-effect="non-scaling-stroke"  transform=" translate(-24, -22)" d="M 42 23 L 6 23 C 5.4 23 5 22.6 5 22 C 5 21.4 5.4 21 6 21 L 42 21 C 42.6 21 43 21.4 43 22 C 43 22.6 42.6 23 42 23" stroke-linecap="round" />
</g>
<g transform="matrix(26.35 0 0 26.35 276.48 540)"  >
<path style="stroke: none; stroke-width: 1; stroke-dasharray: none; stroke-linecap: butt; stroke-dashoffset: 0; stroke-linejoin: miter; stroke-miterlimit: 4; fill: rgb(105,39,41); fill-rule: nonzero; opacity: 1;" vector-effect="non-scaling-stroke"  transform=" translate(-14, -27)" d="M 16 30 L 12 30 C 11.4 30 11 29.6 11 29 L 11 27 C 11 25.3 12.3 24 14 24 C 15.7 24 17 25.3 17 27 L 17 29 C 17 29.6 16.6 30 16 30 M 13 28 L 15 28 L 15 27 C 15 26.4 14.6 26 14 26 C 13.4 26 13 26.4 13 27 z" stroke-linecap="round" />
</g>
<g transform="matrix(26.35 0 0 26.35 487.38 540)"  >
<path style="stroke: none; stroke-width: 1; stroke-dasharray: none; stroke-linecap: butt; stroke-dashoffset: 0; stroke-linejoin: miter; stroke-miterlimit: 4; fill: rgb(105,39,41); fill-rule: nonzero; opacity: 1;" vector-effect="non-scaling-stroke"  transform=" translate(-22, -27)" d="M 24 30 L 20 30 C 19.4 30 19 29.6 19 29 L 19 27 C 19 25.3 20.3 24 22 24 C 23.7 24 25 25.3 25 27 L 25 29 C 25 29.6 24.6 30 24 30 M 21 28 L 23 28 L 23 27 C 23 26.4 22.6 26 22 26 C 21.4 26 21 26.4 21 27 z" stroke-linecap="round" />
</g>
<g transform="matrix(26.35 0 0 26.35 803.6 540)"  >
<path style="stroke: none; stroke-width: 1; stroke-dasharray: none; stroke-linecap: butt; stroke-dashoffset: 0; stroke-linejoin: miter; stroke-miterlimit: 4; fill: rgb(105,39,41); fill-rule: nonzero; opacity: 1;" vector-effect="non-scaling-stroke"  transform=" translate(-34, -27)" d="M 36 30 L 32 30 C 31.4 30 31 29.6 31 29 L 31 27 C 31 25.3 32.3 24 34 24 C 35.7 24 37 25.3 37 27 L 37 29 C 37 29.6 36.6 30 36 30 M 33 28 L 35 28 L 35 27 C 35 26.4 34.6 26 34 26 C 33.4 26 33 26.4 33 27 z" stroke-linecap="round" />
</g>
<g transform="matrix(26.35 0 0 26.35 368.71 276.4)"  >
<path style="stroke: none; stroke-width: 1; stroke-dasharray: none; stroke-linecap: butt; stroke-dashoffset: 0; stroke-linejoin: miter; stroke-miterlimit: 4; fill: rgb(105,39,41); fill-rule: nonzero; opacity: 1;" vector-effect="non-scaling-stroke"  transform=" translate(-17.5, -17)" d="M 27 23 L 8 23 C 7.4 23 7 22.6 7 22 L 7 12 C 7 11.4 7.4 11 8 11 L 26 11 C 26.5 11 26.9 11.4 27 11.9 L 28 21.9 C 28 22.2 27.9 22.5 27.7 22.7 C 27.6 22.9 27.3 23 27 23 M 9 21 L 25.9 21 L 25.1 13 L 9 13 z" stroke-linecap="round" />
</g>
<g transform="matrix(26.35 0 0 26.35 540 408.24)"  >
<path style="stroke: none; stroke-width: 1; stroke-dasharray: none; stroke-linecap: butt; stroke-dashoffset: 0; stroke-linejoin: miter; stroke-miterlimit: 4; fill: rgb(105,39,41); fill-rule: nonzero; opacity: 1;" vector-effect="non-scaling-stroke"  transform=" translate(-24, -22)" d="M 42 23 L 6 23 C 5.4 23 5 22.6 5 22 C 5 21.4 5.4 21 6 21 L 42 21 C 42.6 21 43 21.4 43 22 C 43 22.6 42.6 23 42 23" stroke-linecap="round" />
</g>
<g transform="matrix(26.35 0 0 26.35 342.36 144.63)"  >
<path style="stroke: none; stroke-width: 1; stroke-dasharray: none; stroke-linecap: butt; stroke-dashoffset: 0; stroke-linejoin: miter; stroke-miterlimit: 4; fill: rgb(105,39,41); fill-rule: nonzero; opacity: 1;" vector-effect="non-scaling-stroke"  transform=" translate(-16.5, -12)" d="M 27 13 L 6 13 C 5.4 13 5 12.6 5 12 C 5 11.4 5.4 11 6 11 L 27 11 C 27.6 11 28 11.4 28 12 C 28 12.6 27.6 13 27 13" stroke-linecap="round" />
</g>
<g transform="matrix(26.35 0 0 26.35 276.48 276.48)"  >
<path style="stroke: none; stroke-width: 1; stroke-dasharray: none; stroke-linecap: butt; stroke-dashoffset: 0; stroke-linejoin: miter; stroke-miterlimit: 4; fill: rgb(105,39,41); fill-rule: nonzero; opacity: 1;" vector-effect="non-scaling-stroke"  transform=" translate(-14, -17)" d="M 16 20 L 12 20 C 11.4 20 11 19.6 11 19 L 11 17 C 11 15.3 12.3 14 14 14 C 15.7 14 17 15.3 17 17 L 17 19 C 17 19.6 16.6 20 16 20 M 13 18 L 15 18 L 15 17 C 15 16.4 14.6 16 14 16 C 13.4 16 13 16.4 13 17 z" stroke-linecap="round" />
</g>
<g transform="matrix(26.35 0 0 26.35 487.38 276.48)"  >
<path style="stroke: none; stroke-width: 1; stroke-dasharray: none; stroke-linecap: butt; stroke-dashoffset: 0; stroke-linejoin: miter; stroke-miterlimit: 4; fill: rgb(105,39,41); fill-rule: nonzero; opacity: 1;" vector-effect="non-scaling-stroke"  transform=" translate(-22, -17)" d="M 24 20 L 20 20 C 19.4 20 19 19.6 19 19 L 19 17 C 19 15.3 20.3 14 22 14 C 23.7 14 25 15.3 25 17 L 25 19 C 25 19.6 24.6 20 24 20 M 21 18 L 23 18 L 23 17 C 23 16.4 22.6 16 22 16 C 21.4 16 21 16.4 21 17 z" stroke-linecap="round" />
</g>
<g transform="matrix(26.35 0 0 26.35 656.03 671.55)"  >
<path style="stroke: none; stroke-width: 1; stroke-dasharray: none; stroke-linecap: butt; stroke-dashoffset: 0; stroke-linejoin: miter; stroke-miterlimit: 4; fill: rgb(105,39,41); fill-rule: nonzero; opacity: 1;" vector-effect="non-scaling-stroke"  transform=" translate(-28.4, -31.99)" d="M 29.9 43 C 29.4 43 29 42.6 28.9 42.1 L 26 22.1 C 25.9 21.6 26.3 21 26.8 21 C 27.3 20.9 27.9 21.3 27.9 21.8 L 30.8 41.8 C 30.9 42.3 30.5 42.9 30 42.9 C 30 43 30 43 29.9 43" stroke-linecap="round" />
</g>
<g transform="matrix(0 0 0 0 0 0)"  >
<g style=""   >
</g>
</g>
<g transform="matrix(0 0 0 0 0 0)"  >
<g style=""   >
</g>
</g>
<g transform="matrix(0 0 0 0 0 0)"  >
<g style=""   >
</g>
</g>
<g transform="matrix(0 0 0 0 0 0)"  >
<g style=""   >
</g>
</g>
<g transform="matrix(0 0 0 0 0 0)"  >
<g style=""   >
</g>
</g>
<g transform="matrix(0 0 0 0 0 0)"  >
<g style=""   >
</g>
</g>
<g transform="matrix(0 0 0 0 0 0)"  >
<g style=""   >
</g>
</g>
<g transform="matrix(0 0 0 0 0 0)"  >
<g style=""   >
</g>
</g>
<g transform="matrix(0 0 0 0 0 0)"  >
<g style=""   >
</g>
</g>
<g transform="matrix(0 0 0 0 0 0)"  >
<g style=""   >
</g>
</g>
<g transform="matrix(0 0 0 0 0 0)"  >
<g style=""   >
</g>
</g>
<g transform="matrix(0 0 0 0 0 0)"  >
<g style=""   >
</g>
</g>
<g transform="matrix(0 0 0 0 0 0)"  >
<g style=""   >
</g>
</g>
<g transform="matrix(0 0 0 0 0 0)"  >
<g style=""   >
</g>
</g>
<g transform="matrix(0 0 0 0 0 0)"  >
<g style=""   >
</g>
</g>
<g transform="matrix(0 0 0 0 0 0)"  >
<g style=""   >
</g>
</g>
<g transform="matrix(NaN NaN NaN NaN 0 0)"  >
<g style=""   >
</g>
</g>
<g transform="matrix(NaN NaN NaN NaN 0 0)"  >
<g style=""   >
</g>
</g>
<g transform="matrix(NaN NaN NaN NaN 0 0)"  >
<g style=""   >
</g>
</g>
<g transform="matrix(NaN NaN NaN NaN 0 0)"  >
<g style=""   >
</g>
</g>
<g transform="matrix(NaN NaN NaN NaN 0 0)"  >
<g style=""   >
</g>
</g>
<g transform="matrix(NaN NaN NaN NaN 0 0)"  >
<g style=""   >
</g>
</g>
</svg>